<svg width="48" height="48" viewBox="0 0 48 48" fill="none" xmlns="http://www.w3.org/2000/svg">
<rect width="48" height="48" rx="8" fill="white"/>
<path d="M5.5 34C5.5 34.6926 5.7401 35.2966 6.22254 35.7777C6.70354 36.26 7.30748 36.5 8 36.5H40C40.6926 36.5 41.2965 36.2599 41.7776 35.7776C42.2599 35.2965 42.5 34.6926 42.5 34C42.5 33.3074 42.2599 32.7035 41.7776 32.2224C41.2965 31.7401 40.6926 31.5 40 31.5H8C7.30743 31.5 6.70346 31.7401 6.22245 32.2224C5.74006 32.7035 5.5 33.3074 5.5 34ZM6.22245 25.7776C6.70346 26.2599 7.30743 26.5 8 26.5H40C40.6926 26.5 41.2965 26.2599 41.7776 25.7776C42.2599 25.2965 42.5 24.6926 42.5 24C42.5 23.3072 42.2598 22.7027 41.7776 22.2204C41.2963 21.7392 40.6923 21.5 40 21.5H8C7.30768 21.5 6.70369 21.7392 6.22245 22.2204C5.74023 22.7027 5.5 23.3072 5.5 24C5.5 24.6926 5.74006 25.2965 6.22245 25.7776ZM6.22245 15.7796C6.70369 16.2608 7.30768 16.5 8 16.5H40C40.6923 16.5 41.2963 16.2608 41.7776 15.7796C42.2598 15.2973 42.5 14.6928 42.5 14C42.5 13.3072 42.2598 12.7027 41.7776 12.2204C41.2963 11.7392 40.6923 11.5 40 11.5H8C7.30768 11.5 6.70369 11.7392 6.22245 12.2204C5.74023 12.7027 5.5 13.3072 5.5 14C5.5 14.6928 5.74023 15.2973 6.22245 15.7796Z" fill="#00388B" stroke="#00388B"/>
</svg>
