<svg width="96" height="24" viewBox="0 0 96 24" fill="none" xmlns="http://www.w3.org/2000/svg">
<path d="M6.99999 15.0742L10.605 17.2501L9.64832 13.1492L12.8333 10.3901L8.63916 10.0342L6.99999 6.16675L5.36082 10.0342L1.16666 10.3901L4.35166 13.1492L3.39499 17.2501L6.99999 15.0742Z" fill="#00388B"/>
<path d="M26 15.0742L29.605 17.2501L28.6483 13.1492L31.8333 10.3901L27.6392 10.0342L26 6.16675L24.3608 10.0342L20.1667 10.3901L23.3517 13.1492L22.395 17.2501L26 15.0742Z" fill="#00388B"/>
<path d="M45 15.0742L48.605 17.2501L47.6483 13.1492L50.8333 10.3901L46.6392 10.0342L45 6.16675L43.3608 10.0342L39.1667 10.3901L42.3517 13.1492L41.395 17.2501L45 15.0742Z" fill="#00388B"/>
<path d="M64 15.0742L67.605 17.2501L66.6483 13.1492L69.8333 10.3901L65.6392 10.0342L64 6.16675L62.3608 10.0342L58.1667 10.3901L61.3517 13.1492L60.395 17.2501L64 15.0742Z" fill="#00388B"/>
<path d="M83 15.0742L86.605 17.2501L85.6484 13.1492L88.8334 10.3901L84.6392 10.0342L83 6.16675L81.3609 10.0342L77.1667 10.3901L80.3517 13.1492L79.395 17.2501L83 15.0742Z" fill="#00388B"/>
</svg>
